<?xml version="1.0" standalone="no"?><!DOCTYPE svg PUBLIC "-//W3C//DTD SVG 1.1//EN" "http://www.w3.org/Graphics/SVG/1.1/DTD/svg11.dtd"><svg t="1607435090407" class="icon" viewBox="0 0 2778 1024" version="1.1" xmlns="http://www.w3.org/2000/svg" p-id="3932" xmlns:xlink="http://www.w3.org/1999/xlink" width="542.578125" height="200"><defs><style type="text/css"></style></defs><path d="M1368.077312 545.219584l-17.396941-14.326272c-11.256832-8.18647-24.560333-20.466074-37.863936-33.769062s-25.583718-26.605978-33.770496-37.862298l-14.326886-17.396224c-8.186778-8.18647-8.186778-22.512742 0-31.722496l14.326886-17.396224c8.186778-10.233037 19.44361-22.512742 33.770496-36.839014 13.303501-13.302989 26.607104-26.605978 37.863936-34.792448l17.396941-13.302989c8.186778-9.209754 21.490381-9.209754 30.700442 0 5.116723 5.116518 11.256832 9.209754 17.396941 14.326272 11.256832 9.209754 23.53705 20.466074 36.84055 33.769062s24.560333 25.582694 33.770496 36.839014c5.116723 6.139802 9.210163 12.279706 14.326886 17.396224 9.210163 9.209754 9.210163 23.536026 0 31.722496l-13.303501 17.396224c-8.186778 11.25632-21.490381 24.559309-34.793882 37.862298-14.326886 14.326272-26.607104 25.582694-36.84055 33.769062l-17.396941 14.326272C1389.567693 554.429338 1376.264192 554.429338 1368.077312 545.219584L1368.077312 545.219584zM2466.130944 546.242867c11.256832 11.25632 18.420326 19.44279 25.583718 27.629261 3.070054 5.116518 7.163494 9.209754 11.256832 13.302989 7.163494 7.163187 7.163494 17.396224 0 24.559309l-11.256832 13.302989c-7.163494 8.18647-14.326886 16.372941-25.583718 27.629261-11.256832 12.279706-20.466995 21.489459-27.630387 26.605978-5.116723 3.069952-9.210163 7.163187-13.303501 10.233037-8.186778 8.18647-16.373555 8.18647-24.560333 0-5.116723-3.069952-9.210163-7.163187-13.303501-10.233037-7.163494-5.116518-16.373555-14.326272-27.630387-26.605978-11.256832-11.25632-19.44361-19.44279-26.607104-27.629261-4.09344-4.093235-7.163494-8.18647-10.233446-13.302989-7.163494-7.163187-7.163494-17.396224 0-24.559309l10.233446-13.302989c7.163494-8.18647 15.350272-16.372941 26.607104-27.629261s19.44361-18.419507 27.630387-25.582694c4.09344-3.069952 8.186778-7.163187 13.303501-10.233037 8.186778-8.18647 16.373555-8.18647 24.560333 0 4.09344 3.069952 8.186778 7.163187 13.303501 10.233037C2446.687334 527.82336 2454.874112 534.986547 2466.130944 546.242867L2466.130944 546.242867zM294.584115 896.213606c-1.023386 1.023283-3.070054 1.023283-5.116723 1.023283l-16.373586 0c-150.432358 0-272.210842-70.608077-272.210842-209.777766 3.070054-119.726797 138.152141-199.54473 259.930726-194.428211 120.7552 5.116518 224.113459 51.165286 304.958054 85.957734 16.373555 7.163187 33.770496 13.302989 53.214106 20.466074 78.797926-100.284006 108.474982-200.568013 113.591706-220.010803l-444.133531 0 0-49.118698 209.786576 0 0-113.586988-291.654508 0 0-49.118698 291.654508 0 0-92.097558c0-12.279706 16.373555-19.44279 33.770496-22.512742 10.233446-2.046566 21.490381-3.069952 34.793882-3.069952l78.797885 0 0 117.680213 299.841301 0 0 49.118698-299.841301 0 0 113.586988 238.440352 0 0-1.023306c-5.116723 30.699213-13.303501 63.444992-24.560333 97.214054-19.44361 58.328474-55.260877 137.123021-116.66176 215.917568 58.330931 19.44279 122.801869 37.862298 188.296294 57.30519 41.957274 12.279706 88.007987 22.512742 138.152141 30.699213l0-424.672072c-27.630387 15.349555-53.214106 25.582694-72.657818 33.769062-11.256832 5.116518-21.490381 9.209754-30.700442 12.279706l-20.466995-30.699213c37.863936-27.629261 70.611046-55.258522 100.288205-83.911066 50.144154-50.142003 101.31159-110.517043 101.31159-165.775565 0-12.279706 16.373555-19.44279 33.770496-22.512742 10.233446-2.046566 21.490381-3.069952 34.793882-3.069952l47.074061 0 20.466983 0c0 7.163187-1.023386 15.349555-3.070054 24.559309-3.070054 15.349555-8.186778 36.839014-17.396941 60.37504-11.256832 23.536026-24.560333 49.11872-45.027328 73.678029l0 545.422204c94.148096 9.209754 196.483072 13.302989 302.911386 16.372941l0-498.350119-257.883986 0-21.490332 0 0-51.16531 21.490332 0 257.883986 0 0-145.30948c0-12.279706 16.373555-19.44279 33.770496-22.512742 9.210163-2.046566 20.466995-3.069952 33.770496-3.069952l79.821234 0 0 170.892135 77.774535 0 0 51.16531-77.774535 0 0 498.350119c144.29225-1.023283 290.631168-8.18647 430.829978-19.44279l0-253.779937-201.599783 0 0-51.16531 201.599783 0 0-128.936581-152.479023 0-16.373586 0-122.801898 0 0-187.265034c0-16.372941 33.770496-22.512742 69.587763-25.582694 20.466995-1.023283 44.004045-1.023283 69.587763 0l0 27.629267 152.479027-4.093235 0-52.188616c0-12.279706 16.373555-19.44279 33.770496-22.512742 10.233446-2.046566 21.490381-3.069952 34.793882-3.069952l15.350237 0 64.470996 0 0 72.65474 232.300237-8.18647c46.050714 0 65.494323 27.629261 66.517709 61.398323l-10.233446 83.911066c-7.163494 16.372941-13.303501 32.745779-32.747213 32.745779l-5.116746 0 0 24.559349-250.720542 0 0 128.936581 212.856623 0 0 51.16531-212.856623 0 0 240.476957c193.413018-19.44279 363.288986-45.025485 489.160909-72.654746 11.256832-3.069952 22.513664-2.046566 33.770496-5.116518 40.93399 36.839014-112.568422 121.773466-157.59575 191.358259-23.53705 37.862298-44.004045 44.002202-95.171482 47.072051-453.343642 45.025485-1133.870899 88.004301-1571.864269-55.258522-114.615091-36.839014-199.553126-76.747981-276.304282-116.656947-11.256832 11.25632-22.513664 19.44279-34.793882 30.699213C472.646861 887.003853 351.891661 893.143654 294.584115 896.213606L294.584115 896.213606zM546.327962 681.319322l16.373555-15.349555c-39.910605-21.489459-76.751155-39.908966-116.66176-57.30519-44.004045-17.396224-65.494323-27.629261-89.031373-34.792448-32.747213-7.163187-72.657818-13.302989-114.615091-13.302989l-2.046698 0c-68.564378 13.302989-144.29225 42.978816-144.29225 128.93655 0 111.540326 100.288205 142.239539 186.249523 142.239539C354.961715 831.745331 448.086426 774.440141 546.327962 681.319322L546.327962 681.319322zM2098.748621 262.787072l83.91463 0 64.470996 0 13.303539 0 147.362278 0 10.233446-78.794547c0-11.25632-9.210163-20.466074-20.466995-20.466074l-150.432358 5.116518 0 1.023306-64.47104 2.046566-83.91465 3.069952 0-1.023306-152.479027 5.116518 0 83.911108 137.128786 0L2098.748593 262.787115z" p-id="3933" fill="#1296db"></path></svg>