<?xml version="1.0" standalone="no"?><!DOCTYPE svg PUBLIC "-//W3C//DTD SVG 1.1//EN" "http://www.w3.org/Graphics/SVG/1.1/DTD/svg11.dtd"><svg t="1604664221186" class="icon" viewBox="0 0 1024 1024" version="1.1" xmlns="http://www.w3.org/2000/svg" p-id="3113" xmlns:xlink="http://www.w3.org/1999/xlink" width="200" height="200"><defs><style type="text/css"></style></defs><path d="M172 304m47.08 0l645.84 0q47.08 0 47.08 47.08l0 313.84q0 47.08-47.08 47.08l-645.84 0q-47.08 0-47.08-47.08l0-313.84q0-47.08 47.08-47.08Z" fill="#12B886" p-id="3114"></path><path d="M112 364m47.08 0l645.84 0q47.08 0 47.08 47.08l0 313.84q0 47.08-47.08 47.08l-645.84 0q-47.08 0-47.08-47.08l0-313.84q0-47.08 47.08-47.08Z" fill="#20C997" p-id="3115"></path><path d="M737.64 721H226.36a62.78 62.78 0 0 0-62.78-62.78v-180.44a62.78 62.78 0 0 0 62.78-62.78h511.28a62.78 62.78 0 0 0 62.78 62.78v180.44a62.78 62.78 0 0 0-62.78 62.78z" fill="#63E6BE" p-id="3116"></path><path d="M481.040894 639.029499a71.12 71.04 0.78 1 0 1.934156-142.066835 71.12 71.04 0.78 1 0-1.934156 142.066835Z" fill="#20C997" p-id="3117"></path><path d="M696 688m-206 0a206 206 0 1 0 412 0 206 206 0 1 0-412 0Z" fill="#FCC419" p-id="3118"></path><path d="M696 688m-164.36 0a164.36 164.36 0 1 0 328.72 0 164.36 164.36 0 1 0-328.72 0Z" fill="#FFD43B" p-id="3119"></path><path d="M731.28 642.82a11.28 11.28 0 0 1-14.38-2.5 20.36 20.36 0 0 0-5.1-4.56 27.78 27.78 0 0 0-30 2.38 17.64 17.64 0 0 0-6.62 14q0 11.7 17.38 18.82l16 6.52q19.44 7.86 28.44 19.2a43.26 43.26 0 0 1 9 27.78q0 22-14.68 36.42a50.42 50.42 0 0 1-36.72 14.48q-20.8 0-34.34-12.3a50.64 50.64 0 0 1-13.5-21.06 12.36 12.36 0 0 1 8.9-16.22 12.38 12.38 0 0 1 14.48 8.92 23.8 23.8 0 0 0 3.6 7.82q7.44 10.34 21.72 10.34a25.22 25.22 0 0 0 18.72-7.56 26.12 26.12 0 0 0 7.44-19.14 26.9 26.9 0 0 0-1.3-8.54 21.68 21.68 0 0 0-4-7.14 32.3 32.3 0 0 0-7.08-6.1 68.28 68.28 0 0 0-10.34-5.42l-15.42-6.42q-32.8-13.86-32.8-40.56a38.48 38.48 0 0 1 13.76-30.1q13.76-12.2 34.24-12.2a45.18 45.18 0 0 1 35.2 15.76 11.38 11.38 0 0 1-2.6 17.38z" fill="#F08C00" p-id="3120"></path><path d="M696 799.7a12.66 12.66 0 0 1-12.66-12.66v-14.36a12.66 12.66 0 1 1 25.3 0v14.36a12.66 12.66 0 0 1-12.64 12.66zM696 625.72a12.66 12.66 0 0 1-12.66-12.66v-14.36a12.66 12.66 0 0 1 25.3 0v14.36a12.66 12.66 0 0 1-12.64 12.66z" fill="#F08C00" p-id="3121"></path><path d="M812.54 132.88l-169.76 45.54a25.02 25.02 0 0 0-11.2 41.84l34.66 34.72-129.34 128.62-74.64-75.6a32.76 32.76 0 0 0-46.36-0.3l-178.16 176.1a32.8 32.8 0 1 0 46 46.72l154.82-153.12 74.7 75.74a32.76 32.76 0 0 0 23.16 9.76h0.16a32.76 32.76 0 0 0 23.1-9.54l152.84-152 43.24 43.3a24.96 24.96 0 0 0 41.78-11.22l45.48-170a25 25 0 0 0-30.48-30.56z" fill="#FF6B6B" p-id="3122"></path></svg>