<?xml version="1.0" standalone="no"?><!DOCTYPE svg PUBLIC "-//W3C//DTD SVG 1.1//EN" "http://www.w3.org/Graphics/SVG/1.1/DTD/svg11.dtd"><svg t="1607435173326" class="icon" viewBox="0 0 1025 1024" version="1.1" xmlns="http://www.w3.org/2000/svg" p-id="11580" xmlns:xlink="http://www.w3.org/1999/xlink" width="200.1953125" height="200"><defs><style type="text/css"></style></defs><path d="M537.622015 410.308169" p-id="11581" fill="#1afa29"></path><path d="M316.914611 320.110779c-19.899085 0-39.991474 13.179462-39.991474 33.147073 0 19.835673 20.03 33.141959 39.991474 33.141959 19.960451 0 33.141959-13.374812 33.141959-33.210485C350.055547 333.226829 336.811651 320.110779 316.914611 320.110779L316.914611 320.110779zM502.466215 386.335376c20.03 0 33.210485-13.3114 33.210485-33.141959 0-19.967611-13.180485-33.147073-33.210485-33.147073-19.835673 0-39.732712 13.11605-39.732712 33.147073C462.733503 373.023976 482.693954 386.335376 502.466215 386.335376L502.466215 386.335376zM588.659445 512.512921c-13.180485 0-26.491884 13.180485-26.491884 26.428472 0 13.369698 13.3114 26.484725 26.491884 26.484725 20.087275 0 33.208439-13.11605 33.208439-26.484725C621.867884 525.693406 608.810133 512.512921 588.659445 512.512921L588.659445 512.512921zM734.604138 512.512921c-13.11605 0-26.427449 13.242874-26.427449 26.48677 0 13.374812 13.3114 26.490861 26.427449 26.490861 19.962497 0 33.205371-13.11605 33.205371-26.490861C767.746096 525.693406 754.503223 512.512921 734.604138 512.512921L734.604138 512.512921zM827.32471 1.022774 197.701132 1.022774c-108.570496 0-196.678359 88.113999-196.678359 196.678359l0 629.618463c0 108.57561 88.044451 196.680404 196.678359 196.680404L827.32471 1024c96.745187 0 177.243613-69.948516 193.678563-161.95826l3.06423-160.683884L1024.067503 197.701132C1024.067503 89.130636 935.958618 1.022774 827.32471 1.022774L827.32471 1.022774zM403.09966 658.396247c-33.141959 0-59.695209-6.656211-92.842282-13.242874l-92.710344 46.453358 26.554273-79.726232c-66.41381-46.452336-106.153682-106.217094-106.153682-179.033467 0-126.173454 119.396556-225.476598 265.215447-225.476598 130.4016 0 244.548259 79.404059 267.580099 186.194928-8.571866-0.963453-17.081343-1.538252-25.589798-1.538252-125.989355 0-225.35591 93.995971-225.419322 209.801568 0 19.393835 3.006955 37.947972 8.19344 55.667527-8.256852 0.516501-16.507567 0.894927-24.826809 0.894927L403.100682 658.396247zM794.10502 751.365353l20.03 66.2921-72.74887-39.934199c-26.490861 6.656211-53.170936 13.247988-79.530882 13.247988-126.177545 0-225.480689-86.122659-225.480689-192.334639 0-106.021744 99.303144-192.404187 225.480689-192.404187 119.138817 0 225.287384 86.382443 225.287384 192.404187C887.078217 658.396247 847.408917 711.378993 794.10502 751.365353L794.10502 751.365353zM794.10502 751.365353" p-id="11582" fill="#1afa29"></path></svg>