<?xml version="1.0" standalone="no"?><!DOCTYPE svg PUBLIC "-//W3C//DTD SVG 1.1//EN" "http://www.w3.org/Graphics/SVG/1.1/DTD/svg11.dtd"><svg t="1607516097490" class="icon" viewBox="0 0 1024 1024" version="1.1" xmlns="http://www.w3.org/2000/svg" p-id="10485" xmlns:xlink="http://www.w3.org/1999/xlink" width="200" height="200"><defs><style type="text/css"></style></defs><path d="M692.901549 442.146927c11.770115 0 23.54023 1.023488 34.798601 2.046976-31.216392-145.847076-187.298351-254.336832-365.385307-254.336832C163.246377 189.857071 0 325.469265 0 497.927036c0 99.278361 54.244878 181.157421 144.823588 244.613694l-36.333833 109.001499L235.402299 788.085957c45.545227 9.211394 81.87906 17.911044 126.912544 17.911044 11.258371 0 22.516742-0.511744 33.775112-1.535232-7.164418-24.051974-11.258371-49.63918-11.258371-75.738131 0-158.128936 136.123938-286.576712 308.069965-286.576711zM497.927036 343.892054c27.122439 0 45.545227 17.911044 45.545228 45.033483 0 27.122439-17.911044 45.545227-45.545228 45.545228-27.122439 0-54.244878-17.911044-54.244877-45.545228 0-27.122439 27.122439-45.033483 54.244877-45.033483zM244.613693 434.470765c-27.122439 0-54.756622-17.911044-54.756622-45.545228 0-27.122439 27.634183-45.033483 54.756622-45.033483s45.033483 17.911044 45.033483 45.033483c0 27.122439-17.911044 45.545227-45.033483 45.545228z" fill="#83D944" p-id="10486"></path><path d="M1023.488256 724.629685c0-144.823588-144.823588-263.036482-307.558221-263.036482-172.457771 0-308.069965 118.212894-308.069965 263.036482 0 144.823588 135.612194 263.036482 308.069965 263.036482 36.333833 0 72.667666-9.211394 109.001499-17.911045l99.278361 54.244878-27.122439-90.578711c72.155922-54.756622 126.4008-127.424288 126.4008-208.791604z m-407.348326-45.545227c-17.911044 0-36.333833-17.911044-36.333833-36.333833 0-17.911044 17.911044-36.333833 36.333833-36.333833 27.634183 0 45.545227 17.911044 45.545227 36.333833-0.511744 18.422789-18.422789 36.333833-45.545227 36.333833z m199.068466 0c-17.911044 0-35.822089-17.911044-35.822089-36.333833 0-17.911044 17.911044-36.333833 35.822089-36.333833 27.122439 0 45.545227 17.911044 45.545227 36.333833-0.511744 18.422789-18.422789 36.333833-45.545227 36.333833z" fill="#D8D8D8" p-id="10487"></path></svg>